<svg t="1687918998117" class="icon" viewBox="0 0 1024 1024" version="1.1" xmlns="http://www.w3.org/2000/svg" p-id="6462" width="36" height="36"><path d="M104.128 873.216A32 32 0 0 0 126.592 928h382.72c228.832-0.8 417.28-186.976 417.28-416 0-229.6-186.4-416-416-416s-416 186.4-416 416c0 103.616 37.984 198.464 100.736 271.328l-91.2 89.888zM204.64 864L262.4 807.072a32.032 32.032 0 0 0 0.096-45.472A350.944 350.944 0 0 1 158.592 512c0-194.272 157.728-352 352-352s352 157.728 352 352c0 193.888-159.744 351.296-353.472 352H204.64z" p-id="6463"></path><path d="M351.968 480m-64 0a64 64 0 1 0 128 0 64 64 0 1 0-128 0Z" fill="#FDAC00" p-id="6464"></path><path d="M511.968 480m-64 0a64 64 0 1 0 128 0 64 64 0 1 0-128 0Z" fill="#FDAC00" p-id="6465"></path><path d="M671.968 480m-64 0a64 64 0 1 0 128 0 64 64 0 1 0-128 0Z" fill="#FDAC00" p-id="6466"></path></svg>