<svg t="1687913424927" class="icon" viewBox="0 0 1024 1024" version="1.1" xmlns="http://www.w3.org/2000/svg" p-id="5972" width="32" height="32"><path d="M824.96 864a16 16 0 0 0 11.232-27.392l-47.744-47.072A255.232 255.232 0 0 0 864 608c0-141.28-114.72-256-256-256s-256 114.72-256 256c0 140.96 116.064 255.488 256.96 256h216z" fill="#FDAC00" p-id="5973"></path><path d="M137.536 777.184A32 32 0 0 0 160 832h318.912C672.544 831.296 832 673.792 832 480c0-194.24-157.76-352-352-352C285.728 128 128 285.76 128 480c0 85.888 30.816 164.64 82.016 225.792l-72.48 71.392zM238.016 768l38.88-38.304a32 32 0 0 0 0.096-45.472A287.168 287.168 0 0 1 192 480c0-158.976 129.024-288 288-288 158.944 0 288 129.024 288 288 0 158.656-130.72 287.424-289.28 288H238.08z" p-id="5974"></path><path d="M351.968 448m-32 0a32 32 0 1 0 64 0 32 32 0 1 0-64 0Z" p-id="5975"></path><path d="M479.968 448m-32 0a32 32 0 1 0 64 0 32 32 0 1 0-64 0Z" p-id="5976"></path><path d="M607.968 448m-32 0a32 32 0 1 0 64 0 32 32 0 1 0-64 0Z" p-id="5977"></path></svg>