<svg height="200" node-id="1" sillyvg="true" template-height="325" template-width="309" version="1.1" viewBox="0 0 309 325" width="200" xmlns="http://www.w3.org/2000/svg" xmlns:xlink="http://www.w3.org/1999/xlink"><defs node-id="23"><linearGradient gradientUnits="userSpaceOnUse" id="linear-gradient" node-id="5" spreadMethod="pad" x1="161.45" x2="161.45" y1="325.34" y2="114.06"><stop offset="0" stop-color="#392c53"></stop><stop offset="1" stop-color="#27ff9c"></stop><stop offset="1" stop-color="#ff3d8f"></stop></linearGradient></defs><g node-id="64"><path d="M 190.26 115.00 C 211.46 118.76 231.59 141.25 235.26 163.34 C 239.40 193.34 240.97 225.97 241.42 259.74 C 241.64 272.49 236.15 285.74 227.32 297.74 C 218.51 309.53 206.32 320.03 193.67 322.37 C 171.98 326.50 149.69 326.28 128.09 321.71 C 115.59 319.19 103.80 308.93 95.22 297.35 C 86.64 285.58 81.22 272.50 81.47 259.67 C 81.95 225.80 83.47 192.67 88.21 162.05 C 92.58 139.45 112.45 117.05 133.01 114.05 Z" fill="url(#linear-gradient)" fill-rule="evenodd" group-id="1" node-id="36" stroke="none" target-height="212.45" target-width="160.42" target-x="81.22" target-y="114.05"></path><path d="M 214.30 279.76 C 197.45 279.86 184.77 268.27 177.72 243.07 C 173.06 226.42 164.55 225.31 162.38 225.31 L 162.38 225.31 L 162.12 225.31 L 161.86 225.31 L 161.86 225.31 C 159.69 225.31 151.20 226.56 146.76 243.31 C 140.03 268.60 127.50 280.31 110.65 280.47 C 70.78 280.73 73.76 237.88 81.19 221.47 C 88.62 205.06 132.54 211.39 136.54 212.25 C 140.54 213.11 149.76 213.01 154.72 212.97 L 162.04 213.02 C 162.92 213.02 168.17 212.89 169.37 212.88 C 174.32 212.88 183.55 212.83 187.54 211.88 C 191.53 210.93 235.36 204.03 243.00 220.38 C 250.64 236.73 254.18 279.50 214.30 279.76 Z" fill="#f998b7" fill-rule="evenodd" group-id="1" node-id="38" stroke="none" target-height="76.70001" target-width="183.4" target-x="70.78" target-y="204.03"></path><path d="M 214.49 282.57 C 197.64 282.57 185.03 270.90 178.15 245.65 C 173.59 228.97 165.09 227.81 162.92 227.79 L 162.92 227.79 L 162.40 227.79 L 162.40 227.79 C 160.23 227.79 151.73 228.97 147.18 245.65 C 140.29 270.90 127.69 282.57 110.84 282.57 C 70.96 282.57 74.22 239.75 81.75 223.35 C 89.28 206.95 133.17 213.59 137.16 214.48 C 141.15 215.37 150.38 215.33 155.34 215.33 C 156.54 215.33 161.79 215.41 162.66 215.42 C 163.53 215.43 168.79 215.33 169.99 215.33 C 174.94 215.33 184.17 215.33 188.16 214.48 C 192.15 213.63 236.00 207.00 243.57 223.35 C 251.14 239.70 254.37 282.57 214.49 282.57 Z M 89.37 225.06 C 81.08 234.42 81.50 249.94 82.57 254.40 C 83.64 258.86 89.37 274.40 105.57 276.52 C 115.09 277.77 134.81 276.87 142.36 242.52 C 149.12 211.50 97.66 215.70 89.37 225.06 Z M 235.68 225.06 C 227.39 215.70 175.93 211.50 182.74 242.50 C 190.29 276.87 210.00 277.77 219.52 276.50 C 235.68 274.37 241.43 258.85 242.52 254.38 C 243.61 249.91 244.00 234.42 235.68 225.06 Z" fill="#ff749b" fill-rule="evenodd" group-id="1" node-id="40" stroke="none" target-height="75.62001" target-width="183.41" target-x="70.96" target-y="206.95"></path><path d="M 242.49 254.40 C 241.43 258.86 235.68 274.40 219.49 276.51 C 209.97 277.77 190.26 276.87 182.71 242.51 C 175.90 211.51 227.36 215.72 235.65 225.07 C 243.94 234.42 243.55 249.93 242.49 254.40 Z M 105.49 276.51 C 89.33 274.39 83.59 258.86 82.49 254.40 C 81.39 249.94 81.00 234.40 89.29 225.05 C 97.58 215.70 149.04 211.49 142.24 242.49 C 134.77 276.87 115.05 277.77 105.53 276.51 Z" fill="#ea0143" fill-rule="evenodd" group-id="1" node-id="42" stroke="none" target-height="66.27998" target-width="162.94" target-x="81" target-y="211.49"></path><g node-id="65"><path d="M 119.48 273.89 C 117.42 274.55 115.29 274.98 113.13 275.16 L 112.33 275.16 L 125.42 219.37 C 127.18 219.72 128.91 220.21 130.59 220.82 Z M 111.33 275.23 L 110.06 275.23 L 123.42 219.06 L 124.42 219.23 Z M 114.76 218.41 L 108.20 240.16 L 107.00 237.28 L 97.75 272.53 C 97.34 272.33 96.94 272.12 96.55 271.90 L 106.41 233.83 L 108.28 236.90 L 113.68 218.42 Z M 196.59 268.50 L 215.11 218.59 L 216.36 218.65 C 217.74 218.78 219.10 218.94 220.42 219.14 L 220.66 219.25 L 199.33 270.62 C 198.37 269.97 197.46 269.26 196.59 268.50 Z M 230.34 242.65 L 212.62 275.18 C 211.59 275.11 210.57 274.98 209.56 274.79 C 209.11 274.68 208.64 274.56 208.15 274.42 L 205.44 273.34 L 221.25 244.34 L 217.89 243.00 L 230.24 221.60 C 230.97 221.89 231.63 222.19 232.24 222.50 C 233.30 223.05 234.30 223.70 235.24 224.43 L 226.39 239.54 Z" fill="#ffffff" fill-opacity="0.3" fill-rule="evenodd" group-id="1,2" node-id="46" stroke="none" target-height="56.820007" target-width="138.69" target-x="96.55" target-y="218.41"></path></g><path d="M 183.15 240.84 C 190.70 275.22 210.41 276.12 219.94 274.84 C 234.94 272.84 240.94 259.32 242.60 253.84 C 242.60 254.04 242.53 254.22 242.49 254.39 C 241.43 258.85 235.68 274.39 219.49 276.50 C 209.97 277.76 190.26 276.86 182.71 242.50 C 181.84 239.06 181.88 235.45 182.83 232.03 C 182.33 234.96 182.44 237.96 183.15 240.84 Z M 83.00 252.75 C 84.06 257.21 89.80 272.75 106.00 274.86 C 115.20 276.07 133.91 275.27 142.00 244.23 C 134.18 276.90 115.00 277.74 105.62 276.51 C 89.46 274.39 83.72 258.86 82.62 254.40 C 81.93 251.50 81.51 243.96 83.56 236.47 C 82.29 241.81 82.10 247.34 83.00 252.75 Z" fill="#ffa729" fill-rule="evenodd" group-id="1" node-id="49" stroke="none" target-height="45.73001" target-width="161.09" target-x="81.51" target-y="232.03"></path><path d="M 236.00 228.49 C 228.32 220.31 183.59 216.30 182.47 239.04 C 176.87 210.71 227.38 214.69 235.59 223.43 C 241.21 229.43 242.82 238.08 242.95 244.35 C 242.20 239.00 240.24 233.00 236.00 228.49 Z M 219.45 272.00 C 235.61 270.00 241.35 255.34 242.45 251.12 C 242.91 248.89 243.10 246.61 243.01 244.33 C 243.64 248.26 243.59 252.27 242.87 256.18 C 241.80 260.40 236.06 275.05 219.87 277.06 C 210.35 278.24 190.63 277.39 183.09 244.94 C 182.62 243.00 182.42 241.01 182.50 239.02 C 182.50 239.30 182.61 239.58 182.67 239.88 C 190.21 272.36 209.93 273.20 219.45 272.00 Z M 142.65 245.00 C 135.11 277.45 115.39 278.30 105.87 277.12 C 89.71 275.12 83.97 260.46 82.87 256.24 C 82.47 254.34 82.28 252.40 82.31 250.46 C 82.31 250.72 82.41 250.97 82.46 251.18 C 83.52 255.40 89.27 270.05 105.46 272.06 C 114.98 273.24 134.69 272.40 142.24 239.94 C 142.54 238.68 142.73 237.40 142.82 236.11 C 143.46 239.05 143.41 242.09 142.65 245.00 Z M 89.71 228.49 C 83.78 234.81 82.31 244.10 82.34 250.42 C 81.41 245.42 81.42 231.82 89.34 223.42 C 97.26 215.02 144.44 210.99 142.86 236.06 C 138.08 216.68 97.00 220.69 89.71 228.49 Z" fill="#863f00" fill-opacity="0.2" fill-rule="evenodd" group-id="1,3" node-id="53" stroke="none" target-height="67.58998" target-width="162.23" target-x="81.41" target-y="210.71"></path><path d="M 272.88 86.32 C 277.36 77.50 280.74 68.17 282.94 58.52 C 291.48 58.18 298.14 55.66 302.75 51.00 C 306.56 47.12 308.79 41.97 309.00 36.54 C 308.98 34.62 307.42 33.07 305.50 33.07 L 305.50 33.07 C 304.57 33.07 303.67 33.45 303.01 34.11 C 302.36 34.78 301.99 35.68 302.00 36.61 C 301.79 40.16 300.30 43.52 297.81 46.07 C 294.81 49.14 290.27 50.93 284.40 51.42 C 285.50 44.86 286.12 38.23 286.24 31.58 C 286.26 30.64 285.90 29.73 285.25 29.06 C 284.60 28.39 283.70 28.01 282.76 28.00 L 282.69 28.00 C 280.78 28.00 279.23 29.52 279.19 31.43 C 279.05 41.62 277.64 51.75 275.00 61.59 C 271.07 60.28 267.42 58.25 264.24 55.59 C 255.98 48.66 252.43 38.44 253.68 25.21 C 253.86 23.28 252.44 21.56 250.51 21.38 C 248.58 21.20 246.86 22.62 246.68 24.55 C 244.83 44.06 252.74 55.12 259.68 60.96 C 263.61 64.22 268.13 66.71 273.00 68.28 C 267.56 84.14 258.72 98.62 247.10 110.70 C 245.03 107.21 241.36 98.30 248.51 86.88 C 249.53 85.24 249.04 83.08 247.40 82.06 C 245.75 81.03 243.59 81.53 242.57 83.17 C 233.65 97.43 237.93 110.11 242.02 115.78 C 241.56 116.22 241.10 116.66 240.63 117.09 C 236.28 121.11 231.67 124.84 226.84 128.26 C 219.37 133.68 211.32 138.24 202.84 141.87 C 201.26 142.47 200.34 144.12 200.65 145.78 C 200.96 147.44 202.41 148.65 204.10 148.64 C 204.53 148.64 204.95 148.56 205.35 148.41 C 212.87 145.27 220.05 141.39 226.79 136.81 C 234.06 140.71 241.89 143.48 250.00 145.00 C 253.96 145.75 257.97 146.12 262.00 146.13 C 276.45 146.22 290.35 140.62 300.70 130.53 C 302.10 129.20 302.16 126.98 300.83 125.58 C 299.50 124.18 297.28 124.12 295.88 125.45 C 283.72 137.01 268.80 141.28 251.53 138.16 C 245.23 136.97 239.11 134.98 233.32 132.22 C 237.46 129.16 241.43 125.88 245.21 122.39 C 256.51 112.11 265.88 99.89 272.88 86.32 Z" fill="#231f20" fill-rule="nonzero" group-id="1" node-id="56" stroke="none" target-height="127.45" target-width="108.66" target-x="200.34" target-y="21.2"></path><path d="M 119.94 141.87 C 111.08 138.07 102.69 133.26 94.94 127.54 L 94.94 127.54 C 93.40 126.57 91.94 125.46 90.58 124.24 L 90.04 123.90 C 88.83 123.16 87.72 122.27 86.72 121.26 L 86.55 121.06 C 85.07 119.81 83.55 118.51 82.10 117.13 C 62.66 99.13 50.49 77.73 45.76 53.13 C 52.30 51.94 58.16 48.32 62.15 43.00 C 73.22 28.20 68.82 3.88 68.62 2.86 C 68.40 1.63 67.53 0.61 66.34 0.19 C 65.16 -0.23 63.84 0.01 62.89 0.83 C 61.94 1.65 61.50 2.92 61.74 4.15 C 61.74 4.37 65.79 26.44 56.54 38.76 C 53.66 42.64 49.43 45.29 44.69 46.21 C 44.04 41.31 43.67 36.39 43.58 31.45 C 43.56 29.53 42.00 27.99 40.08 28.00 L 40.00 28.00 C 39.07 28.02 38.19 28.40 37.54 29.07 C 36.90 29.74 36.54 30.63 36.56 31.56 C 36.73 42.37 38.25 53.12 41.08 63.56 C 35.14 65.17 29.90 64.56 25.08 61.78 C 11.88 54.00 7.00 32.15 6.93 31.87 C 6.52 29.98 4.66 28.77 2.77 29.18 C 0.88 29.59 -0.33 31.45 0.08 33.34 C 0.30 34.34 5.64 58.49 21.56 67.82 C 25.57 70.21 30.17 71.47 34.84 71.46 C 37.65 71.44 40.44 71.04 43.14 70.27 C 45.01 75.76 47.27 81.11 49.90 86.27 C 50.68 87.79 51.49 89.30 52.33 90.79 C 45.88 91.34 32.44 90.79 25.40 78.35 C 24.45 76.67 22.31 76.07 20.63 77.02 C 18.95 77.97 18.35 80.11 19.30 81.79 C 26.53 94.62 39.45 98.00 49.25 98.00 C 51.62 98.01 53.99 97.80 56.33 97.37 C 61.79 105.74 68.20 113.46 75.43 120.37 C 62.43 127.53 50.79 129.59 40.67 126.48 C 26.11 122.00 19.50 108.13 19.43 108.00 C 18.62 106.24 16.54 105.47 14.79 106.28 C 13.03 107.08 12.25 109.16 13.06 110.92 C 13.37 111.61 20.94 127.76 38.52 133.20 C 42.32 134.37 46.27 134.96 50.25 134.95 C 59.74 134.95 70.00 131.74 80.88 125.38 C 99.41 141.38 116.66 148.14 117.43 148.44 C 117.83 148.59 118.25 148.67 118.68 148.67 C 120.37 148.68 121.82 147.47 122.13 145.81 C 122.44 144.15 121.52 142.50 119.94 141.90 Z" fill="#231f20" fill-rule="nonzero" group-id="1" node-id="58" stroke="none" target-height="148.90999" target-width="122.770004" target-x="-0.33" target-y="-0.23"></path><path d="M 186.84 276.88 C 186.81 277.86 186.72 278.83 186.58 279.80 C 184.68 292.27 173.59 301.24 160.99 300.48 C 148.40 299.72 138.46 289.49 138.07 276.88 Z" fill="#efefef" fill-rule="nonzero" group-id="1" node-id="60" stroke="none" target-height="24.359985" target-width="48.76999" target-x="138.07" target-y="276.88"></path><path d="M 155.10 264.41 C 148.51 264.41 145.81 259.74 149.10 254.04 L 156.46 241.29 C 159.75 235.58 165.14 235.58 168.46 241.29 L 175.80 254.00 C 179.10 259.70 176.40 264.37 169.80 264.37 Z" fill="#e5942c" fill-rule="nonzero" group-id="1" node-id="62" stroke="none" target-height="28.830002" target-width="33.29001" target-x="145.81" target-y="235.58"></path></g></svg>