<svg height="18" node-id="1" sillyvg="true" template-height="367" template-width="284" version="1.1" viewBox="0 0 284 367" width="16" xmlns="http://www.w3.org/2000/svg" xmlns:xlink="http://www.w3.org/1999/xlink"><defs node-id="23"><linearGradient gradientUnits="userSpaceOnUse" id="linear-gradient" node-id="5" spreadMethod="pad" x1="149.61" x2="149.61" y1="366.79" y2="22.62"><stop offset="0" stop-color="#2c534e"></stop><stop offset="1" stop-color="#aeff00"></stop></linearGradient></defs><g node-id="72"><path d="M 151.20 366.26 C 65.41 372.00 31.60 329.51 29.00 288.60 C 26.00 242.55 26.41 30.36 138.67 22.82 C 250.93 15.28 266.67 222.76 270.67 281.37 C 274.67 339.98 237.00 360.50 151.20 366.26 Z" fill="url(#linear-gradient)" fill-rule="evenodd" group-id="1" node-id="34" stroke="none" target-height="356.72" target-width="248.67001" target-x="26" target-y="15.28"></path><path d="M 187.53 141.12 C 166.38 141.12 149.23 123.97 149.23 102.82 C 149.23 81.67 166.38 64.52 187.53 64.52 C 208.68 64.52 225.83 81.67 225.83 102.82 C 225.83 123.97 208.68 141.12 187.53 141.12 Z M 93.83 141.12 C 72.68 141.12 55.53 123.97 55.53 102.82 C 55.53 81.67 72.68 64.52 93.83 64.52 C 114.98 64.52 132.13 81.67 132.13 102.82 C 132.13 123.97 114.98 141.12 93.83 141.12 Z" fill="#ffffff" fill-rule="evenodd" group-id="1" node-id="36" stroke="none" target-height="76.6" target-width="170.3" target-x="55.53" target-y="64.52"></path><path d="M 168.00 111.87 C 165.91 111.87 164.03 113.12 163.23 115.05 C 162.42 116.98 162.86 119.20 164.34 120.68 C 165.81 122.15 168.03 122.60 169.96 121.80 C 171.89 121.00 173.15 119.12 173.15 117.03 C 173.15 115.66 172.61 114.35 171.65 113.38 C 170.68 112.41 169.37 111.87 168.00 111.87 Z M 111.86 112.40 C 109.02 112.41 106.72 114.71 106.72 117.56 C 106.72 120.40 109.03 122.70 111.87 122.70 C 114.72 122.70 117.02 120.39 117.02 117.55 C 117.02 114.71 114.72 112.41 111.88 112.40 Z" fill="#000000" fill-rule="evenodd" group-id="1" node-id="38" stroke="none" target-height="10.829994" target-width="66.42999" target-x="106.72" target-y="111.87"></path><g node-id="73"><path d="M 169.20 134.34 L 165.35 129.34 L 202.16 78.15 L 207.69 78.46 Z M 154.72 115.49 L 185.72 77.19 L 196.16 77.79 L 161.32 124.12 Z M 58.29 129.33 L 95.11 78.14 L 100.63 78.45 L 62.14 134.34 Z M 47.66 115.49 L 78.66 77.19 L 89.10 77.79 L 54.29 124.12 Z" fill="#ffffff" fill-opacity="0.3" fill-rule="evenodd" group-id="1,2" node-id="42" stroke="none" target-height="57.149994" target-width="160.03" target-x="47.66" target-y="77.19"></path></g><path d="M 240.92 89.79 C 240.65 93.15 239.56 96.39 237.76 99.23 C 235.67 114.93 229.21 150.37 195.70 149.56 C 162.19 148.75 156.85 134.05 153.64 127.56 C 150.43 121.07 146.13 107.88 144.17 102.40 C 143.40 100.23 141.20 98.91 138.92 99.25 L 138.92 98.95 C 136.99 99.02 135.31 100.30 134.72 102.14 C 132.77 107.66 128.48 120.90 125.27 127.44 C 122.06 133.98 116.73 148.77 83.27 149.58 C 49.81 150.39 43.37 114.77 41.27 98.98 C 39.47 96.12 38.39 92.86 38.12 89.49 C 37.80 84.18 33.78 77.34 46.52 74.73 C 59.26 72.12 91.57 66.34 113.69 73.67 C 135.81 81.00 138.58 80.00 140.00 80.00 L 140.00 80.44 C 142.06 80.44 147.25 80.01 165.24 74.08 C 187.39 66.78 219.77 72.54 232.54 75.08 C 245.31 77.62 241.23 84.51 240.92 89.79 Z M 109.27 82.79 C 101.75 80.94 66.44 71.79 57.47 90.18 C 47.95 109.68 57.98 139.31 80.72 140.83 C 90.01 141.46 110.49 143.09 119.84 115.50 C 129.19 87.91 116.78 84.66 109.27 82.82 Z M 220.78 90.49 C 211.88 72.13 176.78 81.27 169.35 83.11 C 161.92 84.95 149.57 88.24 158.86 115.80 C 168.15 143.36 188.47 141.72 197.69 141.10 C 220.27 139.60 230.23 110.00 220.78 90.52 Z" fill="#331b0e" fill-rule="evenodd" group-id="1" node-id="45" stroke="none" target-height="84.05" target-width="211.53" target-x="33.78" target-y="66.34"></path><path d="M 235.62 87.77 L 232.47 87.77 C 231.64 87.70 231.01 87.01 231.01 86.19 C 231.01 85.36 231.64 84.67 232.47 84.60 L 235.62 84.60 C 236.45 84.67 237.08 85.36 237.08 86.19 C 237.08 87.01 236.45 87.70 235.62 87.77 Z M 44.62 87.77 C 43.79 87.70 43.16 87.01 43.16 86.19 C 43.16 85.36 43.79 84.67 44.62 84.60 L 47.77 84.60 C 48.60 84.67 49.23 85.36 49.23 86.19 C 49.23 87.01 48.60 87.70 47.77 87.77 Z" fill="#5e20d2" fill-rule="evenodd" group-id="1" node-id="47" stroke="none" target-height="3.1699982" target-width="193.92" target-x="43.16" target-y="84.6"></path><path d="M 190.79 156.50 L 97.94 156.50 C 91.75 156.50 91.75 166.41 97.94 166.41 L 190.79 166.41 C 198.22 166.41 198.22 156.50 190.79 156.50 Z" fill="#1e1411" fill-rule="nonzero" group-id="1" node-id="49" stroke="none" target-height="9.910004" target-width="106.47" target-x="91.75" target-y="156.5"></path><path d="M 114.35 174.46 C 132.73 179.89 152.30 179.89 170.68 174.46 C 170.68 174.46 141.93 200.10 114.35 174.46 Z" fill="#000000" fill-opacity="0.2" fill-rule="nonzero" group-id="1,3" node-id="53" stroke="none" target-height="25.64" target-width="56.329994" target-x="114.35" target-y="174.46"></path><path d="M 84.33 153.41 C 83.30 153.41 82.47 152.58 82.47 151.55 C 82.47 150.52 83.30 149.69 84.33 149.69 C 85.36 149.69 86.19 150.52 86.19 151.55 C 86.19 152.58 85.36 153.41 84.33 153.41 Z M 86.80 158.67 C 85.83 158.74 85.08 159.55 85.08 160.53 C 85.08 161.50 85.83 162.31 86.80 162.38 C 87.50 162.43 88.16 162.09 88.52 161.49 C 88.89 160.90 88.89 160.15 88.52 159.56 C 88.16 158.96 87.50 158.62 86.80 158.67 Z M 78.14 157.12 C 77.44 157.07 76.78 157.41 76.42 158.01 C 76.05 158.60 76.05 159.35 76.42 159.94 C 76.78 160.54 77.44 160.88 78.14 160.83 C 79.11 160.76 79.86 159.95 79.86 158.97 C 79.86 158.00 79.11 157.19 78.14 157.12 Z M 204.41 156.81 C 203.38 156.81 202.55 157.64 202.55 158.67 C 202.55 159.70 203.38 160.53 204.41 160.53 C 205.44 160.53 206.27 159.70 206.27 158.67 C 206.27 157.64 205.44 156.81 204.41 156.81 Z M 211.84 159.91 C 211.14 159.86 210.48 160.20 210.12 160.80 C 209.75 161.39 209.75 162.14 210.12 162.73 C 210.48 163.33 211.14 163.67 211.84 163.62 C 212.54 163.67 213.20 163.33 213.56 162.73 C 213.93 162.14 213.93 161.39 213.56 160.80 C 213.20 160.20 212.54 159.86 211.84 159.91 Z M 213.08 151.55 C 212.38 151.50 211.72 151.84 211.36 152.44 C 210.99 153.03 210.99 153.78 211.36 154.37 C 211.72 154.97 212.38 155.31 213.08 155.26 C 214.05 155.19 214.80 154.38 214.80 153.41 C 214.80 152.43 214.05 151.62 213.08 151.55 Z" fill="#380a2a" fill-opacity="0.4" fill-rule="nonzero" group-id="1,4" node-id="58" stroke="none" target-height="13.979996" target-width="138.75" target-x="76.05" target-y="149.69"></path><path d="M 267.53 189.76 L 265.14 190.27 L 264.93 190.27 C 262.45 190.80 259.87 191.32 257.21 191.84 L 256.98 191.89 L 254.54 192.36 L 254.24 192.42 C 251.53 192.93 248.74 193.44 245.86 193.95 L 245.51 194.01 L 242.89 194.46 L 242.61 194.51 C 240.61 194.85 238.59 195.18 236.56 195.51 L 236.46 195.51 L 233.54 195.97 L 233.17 196.03 L 230.17 196.47 L 230.06 196.47 L 223.55 197.40 L 223.35 197.40 L 220.27 197.81 L 219.95 197.81 C 216.61 198.24 213.20 198.66 209.73 199.05 L 209.50 199.05 C 208.40 199.17 207.29 199.30 206.17 199.41 L 205.98 199.41 C 202.43 199.79 198.81 200.15 195.12 200.47 L 194.93 200.47 C 189.99 200.90 184.94 201.28 179.79 201.60 L 179.68 201.60 C 131.51 204.60 74.33 201.96 16.68 185.43 L 16.68 117.38 C 16.68 86.98 28.75 57.83 50.24 36.34 C 71.73 14.85 100.88 2.77 131.28 2.77 L 152.93 2.77 C 183.33 2.77 212.48 14.85 233.97 36.34 C 255.46 57.83 267.53 86.98 267.53 117.38 L 267.53 189.76 Z" fill="#00a6dd" fill-opacity="0.1" fill-rule="evenodd" group-id="1,5" node-id="63" stroke="none" target-height="201.83" target-width="250.85" target-x="16.68" target-y="2.77"></path><path d="M 284.21 185.88 C 284.21 196.80 220.59 205.65 142.11 205.65 C 63.63 205.65 0.00 196.80 0.00 185.88 C 0.00 183.18 3.91 180.60 11.00 178.26 L 11.00 119.62 C 11.00 53.57 64.54 0.02 130.59 0.00 L 153.19 0.00 C 219.25 0.01 272.80 53.56 272.80 119.62 L 272.80 178.11 C 280.14 180.49 284.21 183.12 284.21 185.88 Z M 263.59 122.63 C 263.59 93.14 251.88 64.85 231.02 44.00 C 210.17 23.14 181.88 11.43 152.39 11.43 L 131.39 11.43 C 69.98 11.43 20.19 61.22 20.19 122.63 L 20.19 175.72 C 21.19 175.49 22.19 175.27 23.19 175.05 C 22.17 175.38 21.17 175.77 20.19 176.21 L 20.19 182.64 C 33.35 188.69 82.90 193.18 142.00 193.18 C 200.71 193.18 250.00 188.75 263.56 182.76 L 263.56 176.09 C 262.58 175.66 261.58 175.27 260.56 174.95 C 261.56 175.17 262.62 175.39 263.56 175.62 Z" fill="#beefff" fill-rule="evenodd" group-id="1" node-id="66" stroke="none" target-height="205.65" target-width="284.21" target-x="0" target-y="0"></path><path d="M 271.70 188.76 C 266.05 194.41 233.70 197.05 219.90 198.18 C 206.10 199.31 203.51 193.85 214.06 193.47 C 224.61 193.09 254.71 191.09 261.53 187.82 C 266.24 185.56 277.35 183.11 271.70 188.76 Z M 239.53 147.00 C 234.05 146.99 229.61 142.55 229.61 137.06 C 229.61 131.58 234.06 127.14 239.54 127.14 C 245.03 127.14 249.47 131.59 249.47 137.07 C 249.47 139.71 248.42 142.23 246.56 144.10 C 244.69 145.96 242.17 147.00 239.53 147.00 Z M 238.72 119.36 C 235.72 118.93 225.40 122.04 225.40 94.86 C 225.40 67.02 197.47 54.86 185.01 51.86 C 172.06 48.73 164.81 45.86 165.24 38.53 C 165.67 31.20 169.54 25.21 195.75 31.23 C 221.96 37.25 245.60 73.10 247.32 86.67 C 251.14 116.86 241.73 119.75 238.72 119.32 Z" fill="#ffffff" fill-opacity="0.5" fill-rule="evenodd" group-id="1,6" node-id="70" stroke="none" target-height="174.1" target-width="112.54001" target-x="164.81" target-y="25.21"></path></g></svg>